<svg width="32" height="32" viewBox="0 0 32 32" fill="none" xmlns="http://www.w3.org/2000/svg">
<path fill-rule="evenodd" clip-rule="evenodd" d="M16.108 31.4718C24.6847 31.4718 31.6374 24.4831 31.6374 15.862C31.6374 7.24104 24.6847 0.252319 16.108 0.252319C7.53136 0.252319 0.578613 7.24104 0.578613 15.862C0.578613 24.4831 7.53136 31.4718 16.108 31.4718ZM18.505 12.3129C19.8287 10.9822 19.8287 8.82485 18.505 7.4942C17.1812 6.16356 15.0349 6.16356 13.7111 7.4942C12.3874 8.82485 12.3874 10.9822 13.7111 12.3129L16.108 14.7221L18.505 12.3129ZM19.639 18.2714C20.9628 19.6021 23.109 19.6021 24.4328 18.2714C25.7566 16.9408 25.7566 14.7834 24.4328 13.4528C23.109 12.1222 20.9628 12.1222 19.639 13.4528L17.2421 15.8621L19.639 18.2714ZM18.505 24.23C19.8287 22.8993 19.8287 20.742 18.505 19.4113L16.108 17.002L13.7111 19.4113C12.3874 20.742 12.3874 22.8993 13.7111 24.23C15.0349 25.5606 17.1812 25.5606 18.505 24.23ZM7.7832 18.2714C6.45944 16.9408 6.45944 14.7834 7.7832 13.4528C9.10702 12.1222 11.2533 12.1222 12.5771 13.4528L14.974 15.8621L12.5771 18.2714C11.2533 19.6021 9.10702 19.6021 7.7832 18.2714Z" fill="#999999"/>
</svg>
