<svg width="33" height="32" viewBox="0 0 33 32" fill="none" xmlns="http://www.w3.org/2000/svg">
<path fill-rule="evenodd" clip-rule="evenodd" d="M16.5334 0.73291C25.2629 0.73291 32.3396 7.6887 32.3396 16.2691C32.3396 24.8496 25.2629 31.8054 16.5334 31.8054C7.80376 31.8054 0.727051 24.8496 0.727051 16.2691C0.727051 7.6887 7.80376 0.73291 16.5334 0.73291ZM31.7329 16.2691C31.7329 8.01807 24.9278 1.32919 16.5334 1.32919C15.8562 1.32919 15.1895 1.37271 14.5357 1.45706C14.9581 1.42077 15.3855 1.40224 15.8174 1.40224C23.8388 1.40224 30.3415 7.79376 30.3415 15.6781C30.3415 23.5624 23.8388 29.9539 15.8174 29.9539C8.22336 29.9539 1.99054 24.2252 1.34807 16.9246C1.69708 24.8716 8.36222 31.2091 16.5334 31.2091C24.9278 31.2091 31.7329 24.5202 31.7329 16.2691ZM29.7348 15.6781C29.7348 8.12306 23.5038 1.99853 15.8174 1.99853C15.1934 1.99853 14.5788 2.03891 13.9765 2.11715C14.3474 2.08647 14.7226 2.07082 15.1016 2.07082C22.4148 2.07082 28.3433 7.89807 28.3433 15.0863C28.3433 22.2745 22.4148 28.1017 15.1016 28.1017C8.18679 28.1017 2.50991 22.892 1.91198 16.2481C2.21599 23.5388 8.3254 29.3576 15.8174 29.3576C23.5038 29.3576 29.7348 23.2331 29.7348 15.6781ZM15.1016 2.66711C22.0797 2.66711 27.7367 8.22736 27.7367 15.0863C27.7367 21.9452 22.0797 27.5054 15.1016 27.5054C8.28517 27.5054 2.72939 22.1998 2.47565 15.5608C3.02348 21.5532 8.14666 26.2495 14.3858 26.2495C20.9903 26.2495 26.3444 20.9869 26.3444 14.4952C26.3444 8.00344 20.9903 2.7409 14.3858 2.7409C14.0441 2.7409 13.7058 2.75498 13.3714 2.78259C13.9371 2.70645 14.5146 2.66711 15.1016 2.66711ZM25.7377 14.4952C25.7377 8.33281 20.6553 3.33719 14.3858 3.33719C13.8561 3.33719 13.3348 3.37284 12.8244 3.44186C13.1031 3.42042 13.3848 3.4095 13.6691 3.4095C19.5655 3.4095 24.3455 8.10774 24.3455 13.9034C24.3455 19.699 19.5655 24.3973 13.6691 24.3973C8.11934 24.3973 3.5586 20.2351 3.04164 14.9132C3.2653 20.8819 8.25866 25.6532 14.3858 25.6532C20.6553 25.6532 25.7377 20.6576 25.7377 14.4952ZM13.6691 4.00578C19.2304 4.00578 23.7388 8.43712 23.7388 13.9034C23.7388 19.3697 19.2304 23.801 13.6691 23.801C8.21738 23.801 3.77753 19.5426 3.60472 14.2252C4.07146 18.8959 8.07881 22.5451 12.9533 22.5451C18.1415 22.5451 22.3473 18.4111 22.3473 13.3116C22.3473 8.21205 18.1415 4.07808 12.9533 4.07808C12.7154 4.07808 12.4795 4.08677 12.246 4.10385C12.711 4.03921 13.186 4.00578 13.6691 4.00578ZM21.7407 13.3116C21.7407 8.54134 17.8064 4.67437 12.9533 4.67437C12.5103 4.67437 12.0749 4.70659 11.6495 4.76877C11.8437 4.75511 12.0398 4.74815 12.2375 4.74815C16.717 4.74815 20.3484 8.3175 20.3484 12.7205C20.3484 17.1235 16.717 20.6928 12.2375 20.6928C8.03989 20.6928 4.58707 17.5587 4.16901 13.5413C4.29295 18.2053 8.17836 21.9488 12.9533 21.9488C17.8064 21.9488 21.7407 18.0818 21.7407 13.3116ZM12.2375 5.34444C16.382 5.34444 19.7417 8.64679 19.7417 12.7205C19.7417 16.7942 16.382 20.0965 12.2375 20.0965C8.14571 20.0965 4.81883 16.8777 4.73482 12.8757C5.1128 16.231 8.00717 18.8406 11.5216 18.8406C15.293 18.8406 18.3502 15.8356 18.3502 12.1287C18.3502 8.4218 15.293 5.41674 11.5216 5.41674C11.3774 5.41674 11.2342 5.42113 11.0922 5.42979C11.4656 5.37359 11.8481 5.34444 12.2375 5.34444ZM17.7436 12.1287C17.7436 8.7511 14.958 6.01303 11.5216 6.01303C11.1766 6.01303 10.838 6.04064 10.5082 6.09373C10.6065 6.08864 10.7054 6.08607 10.805 6.08607C13.8681 6.08607 16.3513 8.52679 16.3513 11.5376C16.3513 14.5484 13.8681 16.9892 10.805 16.9892C7.97266 16.9892 5.63618 14.9023 5.30017 12.2076C5.34319 15.5489 8.11216 18.2444 11.5216 18.2444C14.958 18.2444 17.7436 15.5063 17.7436 12.1287ZM10.805 6.68235C13.5331 6.68235 15.7447 8.85609 15.7447 11.5376C15.7447 14.2191 13.5331 16.3928 10.805 16.3928C8.0769 16.3928 5.86534 14.2191 5.86534 11.5376C5.86534 11.5312 5.86535 11.5247 5.86538 11.5183C6.14941 13.5618 7.93222 15.1362 10.0892 15.1362C12.4437 15.1362 14.3524 13.2601 14.3524 10.9458C14.3524 8.63148 12.4437 6.75541 10.0892 6.75541C10.0359 6.75541 9.9829 6.75636 9.93011 6.75827C10.214 6.70838 10.5064 6.68235 10.805 6.68235ZM13.7457 10.9458C13.7457 8.96085 12.1087 7.35169 10.0892 7.35169C8.06968 7.35169 6.43257 8.96085 6.43257 10.9458C6.43257 12.9308 8.06968 14.5399 10.0892 14.5399C12.1087 14.5399 13.7457 12.9308 13.7457 10.9458Z" fill="#999999"/>
</svg>
