<svg width="31" height="32" viewBox="0 0 31 32" fill="none" xmlns="http://www.w3.org/2000/svg">
<path fill-rule="evenodd" clip-rule="evenodd" d="M15.4391 31.3272C23.9508 31.3272 30.8509 24.3384 30.8509 15.7174C30.8509 7.0964 23.9508 0.107666 15.4391 0.107666C6.92741 0.107666 0.0273438 7.0964 0.0273438 15.7174C0.0273438 24.3384 6.92741 31.3272 15.4391 31.3272ZM20.2471 7.37934C20.4811 6.53736 19.6744 6.03947 18.9376 6.57112L8.65263 13.9922C7.85361 14.5688 7.97929 15.7174 8.84142 15.7174H11.5497V15.6962H16.8281L12.5272 17.2332L10.6312 24.0555C10.3972 24.8975 11.2038 25.3954 11.9407 24.8637L22.2256 17.4427C23.0246 16.8661 22.8989 15.7174 22.0368 15.7174H17.9297L20.2471 7.37934Z" fill="#999999"/>
</svg>
